<?xml version="1.0" encoding="UTF-8" standalone="no"?>
<svg
   id="splitsvg"
   version="1.1"
   width="393.55325"
   height="91.057823"
   sodipodi:docname="hytkylogoooo.svg"
   inkscape:export-filename="../Downloads/hytkylogo_7.svg"
   inkscape:export-xdpi="96"
   inkscape:export-ydpi="96"
   inkscape:version="1.2.2 (b0a84865, 2022-12-01)"
   xmlns:inkscape="http://www.inkscape.org/namespaces/inkscape"
   xmlns:sodipodi="http://sodipodi.sourceforge.net/DTD/sodipodi-0.dtd"
   xmlns="http://www.w3.org/2000/svg"
   xmlns:svg="http://www.w3.org/2000/svg">
  <defs
     id="defs56" />
  <sodipodi:namedview
     id="namedview54"
     pagecolor="#505050"
     bordercolor="#eeeeee"
     borderopacity="1"
     inkscape:showpageshadow="0"
     inkscape:pageopacity="0"
     inkscape:pagecheckerboard="0"
     inkscape:deskcolor="#505050"
     showgrid="false"
     inkscape:zoom="1.9548841"
     inkscape:cx="196.68685"
     inkscape:cy="54.478934"
     inkscape:window-width="1440"
     inkscape:window-height="847"
     inkscape:window-x="0"
     inkscape:window-y="849"
     inkscape:window-maximized="1"
     inkscape:current-layer="splitsvg" />
  <path
     id="path1442"
     d="m 0.0102516,45.724823 0.043,45.333 h 2.75 2.75 v -45.5 -45.5000002 l -2.712,-0.046 c -2.078,-0.035 -2.731,0.004 -2.793,0.167 -0.044,0.117 -0.061,20.6120002 -0.038,45.5460002 z m 11.5000004,0 0.043,45.333 h 3 3 l 0.042,-22.708 0.043,-22.709 h 20.666 c 19.57,0 20.666,0.016 20.667,0.292 10e-4,0.16 0.02,10.379 0.042,22.708 l 0.04,22.417 h 2.75 2.75 v -45.5 -45.5000002 h -2.75 -2.75 l -0.038,19.8990002 c -0.021,10.945 -0.066,19.927 -0.098,19.96 -0.042,0.041 -36.427,0.095 -40.988,0.06 -0.275,-0.002 -0.294,-1.099 -0.334,-19.961 l -0.042,-19.9580002 -2.962,-0.046 c -2.279,-0.035 -2.981,0.004 -3.043,0.167 -0.044,0.117 -0.061,20.6120002 -0.038,45.5460002 z m 11.5,-28.5 0.043,16.833 h 15 15 v -17 -17.0000002 h -2.75 -2.75 l -0.037,14.1480002 c -0.021,7.782 -0.065,14.176 -0.099,14.211 -0.046,0.045 -16.149,0.1 -18.488,0.062 -0.274,-0.004 -0.293,-0.828 -0.333,-14.213 l -0.043,-14.2080002 -2.712,-0.046 c -2.078,-0.035 -2.731,0.004 -2.793,0.167 -0.044,0.117 -0.062,7.787 -0.038,17.0460002 z m 47,28.5 0.043,45.333 h 2.75 2.75 v -45.5 -45.5000002 l -2.712,-0.046 c -2.078,-0.035 -2.731,0.004 -2.793,0.167 -0.044,0.117 -0.061,20.6120002 -0.038,45.5460002 z m 12.639,-18.25 c 0.093,0.962 0.231,2.762 0.307,4 0.076,1.237 0.223,2.461 0.326,2.719 0.103,0.258 0.188,0.792 0.188,1.187 0,0.395 0.112,1.037 0.25,1.427 0.137,0.39 0.252,0.943 0.256,1.229 0.003,0.287 0.113,0.709 0.244,0.938 0.131,0.229 0.241,0.604 0.245,0.833 0.004,0.229 0.119,0.631 0.256,0.894 0.137,0.263 0.249,0.642 0.249,0.843 0,0.201 0.11,0.512 0.244,0.689 0.135,0.178 0.247,0.478 0.25,0.667 0.003,0.189 0.116,0.489 0.25,0.667 0.135,0.178 0.247,0.483 0.25,0.678 0.003,0.195 0.118,0.448 0.256,0.562 0.137,0.114 0.25,0.288 0.25,0.386 0,0.212 1.046,2.318 1.506,3.031 0.177,0.275 0.398,0.65 0.491,0.833 0.208,0.411 0.556,0.972 0.673,1.083 0.048,0.046 0.209,0.275 0.357,0.508 1.004,1.582 3.688,4.55 5.473,6.051 0.779,0.655 1.526,1.295 1.659,1.422 0.323,0.307 3.510998,2.416 4.484998,2.967 1.691,0.956 3.871,2.052 4.081,2.052 0.789,0 0.77,-0.328 0.815,14.262 l 0.043,13.655 h 2.75 2.75 l 0.043,-15.446 0.042,-15.446 -0.709,-0.328 c -0.39,-0.18 -1.047,-0.455 -1.459,-0.612 -0.413,-0.157 -0.863,-0.353 -1,-0.436 -0.138,-0.083 -0.363,-0.194 -0.5,-0.246 -0.476,-0.181 -3.585,-1.767 -4.084,-2.082 -0.275,-0.173 -0.668,-0.39 -0.875,-0.481 -0.206,-0.09 -0.375,-0.223 -0.375,-0.295 0,-0.071 -0.236,-0.235 -0.525,-0.362 -0.289,-0.128 -0.654,-0.362 -0.813,-0.521 -0.158,-0.158 -0.728,-0.61 -1.267,-1.004 -5.007998,-3.666 -9.712998,-11.149 -10.889998,-17.324 -0.078,-0.413 -0.224,-0.961 -0.324,-1.22 -0.099,-0.258 -0.181,-0.844 -0.181,-1.302 0,-0.459 -0.093,-0.997 -0.208,-1.198 -0.161,-0.281 -0.227,-4.028 -0.292,-16.53 l -0.083,-16.1670002 -2.677,-0.046 c -1.472,-0.025 -2.728,0.007 -2.791,0.07 -0.183,0.183 -0.124,25.4350002 0.064,27.3930002 z m 11.072,-0.923 c 0.137,1.096 0.249,2.531 0.249,3.187 0,0.657 0.112,1.513 0.25,1.902 0.137,0.39 0.249,0.981 0.249,1.313 -10e-4,0.332 0.105,0.941 0.235,1.354 0.263,0.834 0.547,1.921 0.755,2.888 0.076,0.352 0.221,0.723 0.324,0.825 0.103,0.103 0.187,0.316 0.187,0.473 0,0.158 0.104,0.499 0.232,0.759 0.128,0.259 0.595,1.222 1.038,2.138 1.2,2.485 2.364,4.148 4.265998,6.095 1.07,1.095 3.639,3.155 3.933,3.155 0.086,0 0.236,0.096 0.332,0.212 0.43,0.518 4.699,2.429 6.282,2.813 0.367,0.088 0.738,0.232 0.825,0.318 0.087,0.087 0.371,0.157 0.63,0.157 0.26,0 0.742,0.113 1.071,0.25 0.329,0.138 0.956,0.25 1.393,0.25 0.51,0 0.921,0.105 1.15,0.292 l 0.356,0.292 0.037,17.916 0.038,17.917 h 2.75 2.75 l 0.085,-18.083 c 0.047,-9.946 0.103,-18.099 0.125,-18.118 0.022,-0.019 0.321,-0.081 0.665,-0.138 0.344,-0.057 0.908,-0.211 1.253,-0.341 0.346,-0.13 0.838,-0.237 1.094,-0.237 0.255,0 0.61,-0.11 0.788,-0.244 0.178,-0.135 0.473,-0.25 0.657,-0.256 0.183,-0.005 0.479,-0.12 0.657,-0.255 0.177,-0.135 0.453,-0.245 0.611,-0.245 0.158,0 0.5,-0.105 0.76,-0.234 0.259,-0.129 1.056,-0.516 1.77,-0.86 0.713,-0.343 1.337,-0.688 1.384,-0.765 0.048,-0.077 0.191,-0.141 0.317,-0.141 0.246,0 1.923,-1.106 3.417,-2.254 1.311,-1.007 5,-4.912 5,-5.293 0,-0.053 0.288,-0.532 0.64,-1.066 0.352,-0.533 0.921,-1.57 1.264,-2.303 0.343,-0.734 0.73,-1.533 0.86,-1.776 0.13,-0.243 0.239,-0.581 0.242,-0.75 0.003,-0.169 0.115,-0.453 0.25,-0.631 0.134,-0.178 0.244,-0.525 0.244,-0.772 0,-0.246 0.113,-0.717 0.25,-1.046 0.138,-0.329 0.25,-0.888 0.25,-1.243 0,-0.356 0.112,-1.014 0.249,-1.464 0.136,-0.45 0.249,-1.339 0.25,-1.975 10e-4,-0.637 0.116,-2.512 0.257,-4.167 0.206,-2.42 0.246,-5.295 0.208,-14.676 l -0.047,-11.6670002 h -2.75 -2.75 l -0.083,15.1670002 c -0.064,11.621 -0.132,15.276 -0.292,15.636 -0.115,0.258 -0.208,0.844 -0.208,1.302 0,0.459 -0.077,0.978 -0.172,1.154 -0.094,0.176 -0.237,0.639 -0.317,1.03 -0.784,3.814 -3.738,8.111 -7.431,10.811 -2.171,1.587 -5.109,2.964 -7.08,3.32 -0.413,0.074 -0.961,0.216 -1.22,0.316 -0.765,0.295 -7.907,0.239 -8.78,-0.069 -0.39,-0.138 -0.948,-0.25 -1.239,-0.25 -0.292,0 -0.677,-0.11 -0.854,-0.245 -0.178,-0.135 -0.5,-0.247 -0.715,-0.25 -0.215,-0.003 -0.59,-0.109 -0.833,-0.235 -0.244,-0.126 -0.818,-0.4 -1.276,-0.608 -2.93,-1.333 -6.01,-4.177 -8.036,-7.421 -0.39,-0.624 -1.381,-2.678 -1.381,-2.862 0,-0.102 -0.104,-0.398 -0.231,-0.657 -0.363,-0.741 -0.63,-1.574 -0.764,-2.389 -0.068,-0.413 -0.208998,-0.961 -0.313998,-1.219 -0.105,-0.258 -0.191,-0.784 -0.191,-1.168 0,-0.384 -0.092,-0.961 -0.206,-1.281 -0.155,-0.438 -0.227,-4.234 -0.291,-15.332 l -0.086,-14.7500002 -2.677,-0.046 c -1.472,-0.025 -2.728,0.007 -2.791,0.07 -0.251,0.25 -0.127,24.3650002 0.136,26.4700002 z m 11.413998,-0.244 c 0.083,0.412 0.198,1.537 0.256,2.5 0.058,0.962 0.181,1.975 0.272,2.25 0.092,0.275 0.227,0.875 0.302,1.333 0.144,0.89 0.41,1.726 0.778,2.443 0.125,0.243 0.227,0.547 0.227,0.674 0,0.128 0.337,0.746 0.75,1.374 0.412,0.628 0.75,1.191 0.75,1.251 0,0.914 4.846,4.489 6.121,4.514 0.163,0.003 0.483,0.113 0.712,0.244 0.229,0.131 0.717,0.243 1.083,0.248 0.367,0.005 1.267,0.118 2,0.25 1.375,0.249 4.494,0.014 5.834,-0.441 0.275,-0.093 0.738,-0.229 1.03,-0.301 2.225,-0.554 5.957,-3.469 7.048,-5.506 0.774,-1.444 1.226,-2.421 1.35,-2.916 0.069,-0.275 0.201,-0.725 0.294,-1 0.385,-1.147 0.565,-2.092 0.701,-3.667 0.079,-0.917 0.227,-2.379 0.33,-3.25 0.126,-1.072 0.169,-5.565 0.133,-13.917 l -0.053,-12.3330002 h -2.75 -2.75 l -0.091,15.0000002 c -0.094,15.47 -0.103,15.671 -0.763,16.942 -0.126,0.244 -0.229,0.537 -0.229,0.652 0,0.751 -1.86,2.954 -3.084,3.652 -2.511,1.434 -7.773,1.69 -9.916,0.483 -0.138,-0.077 -0.505,-0.255 -0.817,-0.395 -0.632,-0.284 -2.517,-2.149 -2.517,-2.491 0,-0.12 -0.112,-0.312 -0.25,-0.426 -0.137,-0.114 -0.25,-0.372 -0.25,-0.572 0,-0.201 -0.11,-0.51 -0.244,-0.688 -0.135,-0.178 -0.247,-0.525 -0.25,-0.771 -0.003,-0.246 -0.099,-0.659 -0.214,-0.917 -0.16,-0.359 -0.228,-3.981 -0.292,-15.469 l -0.083,-15.0000002 -2.677,-0.046 c -1.472,-0.025 -2.728,0.007 -2.791,0.07 -0.173,0.172 -0.125,25.3580002 0.05,26.2260002 z m 46.835,-9.999 c 0,13.793 -0.036,16.23 -0.249,16.931 -0.136,0.45 -0.249,1.177 -0.25,1.615 -0.001,0.438 -0.114,1.066 -0.251,1.395 -0.138,0.329 -0.25,0.813 -0.25,1.075 0,0.262 -0.104,0.759 -0.23,1.105 -0.126,0.345 -0.362,1.078 -0.524,1.628 -0.279,0.947 -0.431,1.354 -0.98,2.625 -0.313,0.724 -0.914,1.981 -1.096,2.292 -0.08,0.137 -0.19,0.362 -0.243,0.5 -0.054,0.137 -0.246,0.475 -0.427,0.75 -0.182,0.275 -0.382,0.612 -0.445,0.75 -0.779,1.686 -6.92,8 -7.781,8 -0.046,0 -0.537,0.301 -1.091,0.669 -0.555,0.368 -1.179,0.743 -1.387,0.833 -0.209,0.09 -0.511,0.239 -0.671,0.331 -0.161,0.091 -0.423,0.242 -0.584,0.334 -0.16,0.093 -0.404,0.211 -0.541,0.262 -0.138,0.052 -0.363,0.165 -0.5,0.25 -0.138,0.086 -0.363,0.2 -0.5,0.253 -0.138,0.053 -0.55,0.212 -0.917,0.353 -0.367,0.141 -0.892,0.35 -1.167,0.465 -0.837,0.349 -1.643,0.617 -2.119,0.704 -0.826,0.15 -0.801,-0.369 -0.757,16.064 l 0.043,15.565 h 2.75 2.75 l 0.043,-13.878 0.042,-13.879 1.291,-0.592 c 1.811,-0.831 2.501,-1.18 3.457,-1.749 0.459,-0.273 1.021,-0.586 1.25,-0.695 2.607,-1.241 11,-9.551 11,-10.891 0,-0.079 1.242,-2.229 1.675,-2.899 0.088,-0.138 0.206,-0.363 0.261,-0.5 0.18,-0.448 1.089,-2.408 1.274,-2.75 0.1,-0.184 0.236,-0.596 0.303,-0.917 0.13,-0.624 0.391,-1.415 0.759,-2.297 0.126,-0.301 0.228,-0.81 0.228,-1.131 0,-0.32 0.113,-0.852 0.25,-1.181 0.138,-0.329 0.25,-0.873 0.25,-1.21 0,-0.336 0.104,-1.02 0.23,-1.521 0.126,-0.5 0.275,-1.943 0.332,-3.206 0.057,-1.263 0.182,-2.988 0.278,-3.833 0.112,-0.985 0.157,-6.268 0.126,-14.704 l -0.049,-13.1670002 -2.677,-0.046 c -1.472,-0.025 -2.728,0.007 -2.791,0.07 -0.064,0.063 -0.115,7.365 -0.115,16.2270002 z m 11.537,-13.3270002 0.046,2.576 h 34 34 v -2.75 -2.75 l -33.963,-0.042 c -27.669,-0.034 -33.979,-0.002 -34.047,0.174 -0.045,0.118 -0.062,1.375 -0.036,2.792 z m 74.503,42.7430002 0.043,45.333 h 3 3 v -45.5 -45.5000002 l -2.962,-0.046 c -2.279,-0.035 -2.981,0.004 -3.043,0.167 -0.044,0.117 -0.061,20.6120002 -0.038,45.5460002 z m 11.5,0 0.043,45.333 h 3 3 l 0.042,-22.458 0.043,-22.459 9.041,0.003 c 7.345,0.003 9.259,0.049 10.207,0.25 0.642,0.136 1.626,0.247 2.188,0.247 0.561,0 1.339,0.113 1.729,0.25 0.39,0.138 1.018,0.253 1.396,0.256 0.378,0.003 0.875,0.113 1.104,0.244 0.229,0.131 0.62,0.241 0.869,0.244 0.249,0.004 0.737,0.127 1.084,0.275 1.563,0.665 1.812,0.777 2.047,0.919 0.137,0.083 0.456,0.232 0.708,0.331 0.252,0.099 0.459,0.248 0.459,0.331 0,0.083 0.093,0.151 0.208,0.152 0.261,0.002 1.825,1.337 2.73,2.332 1.292,1.419 2.401,3.231 3.316,5.416 0.115,0.275 0.33,0.784 0.477,1.131 0.148,0.347 0.271,0.797 0.275,1 0.003,0.203 0.113,0.557 0.244,0.786 0.131,0.229 0.241,0.689 0.244,1.021 0.003,0.333 0.118,0.874 0.256,1.203 0.137,0.329 0.25,1.009 0.25,1.51 0,0.501 0.093,1.122 0.208,1.38 0.158,0.356 0.228,3.5 0.292,13.053 l 0.083,12.583 h 3 3 l 0.046,-9.25 c 0.037,-7.328 -0.006,-9.791 -0.208,-11.855 -0.14,-1.432 -0.255,-3.135 -0.255,-3.783 0,-0.649 -0.112,-1.611 -0.25,-2.139 -0.137,-0.528 -0.25,-1.272 -0.25,-1.654 0,-0.382 -0.112,-0.964 -0.25,-1.293 -0.137,-0.329 -0.252,-0.845 -0.256,-1.146 -0.003,-0.301 -0.113,-0.734 -0.244,-0.963 -0.131,-0.229 -0.243,-0.642 -0.249,-0.917 -0.006,-0.275 -0.121,-0.646 -0.256,-0.824 -0.135,-0.177 -0.245,-0.446 -0.245,-0.595 0,-0.511 -1.33,-3.385 -2.326,-5.026 -1.378,-2.269 -5.225,-5.743 -8.448,-7.626 -1.432,-0.837 -1.589,-1.185 -0.845,-1.865 0.29,-0.264 0.589,-0.481 0.665,-0.481 0.913,0 6.332,-5.164 7.849,-7.48 1.511,-2.307 2.705,-4.969 3.112,-6.936 0.076,-0.367 0.213,-0.967 0.305,-1.334 0.389,-1.549 0.577,-2.774 0.691,-4.5 0.066,-1.008 0.209,-2.808 0.317,-4 0.127,-1.401 0.179,-4.846 0.147,-9.7500002 l -0.05,-7.583 h -3 -3 l -0.083,10.8330002 c -0.063,8.152 -0.135,10.95 -0.292,11.303 -0.115,0.258 -0.208,0.81 -0.208,1.227 0,0.418 -0.109,1.106 -0.242,1.531 -0.132,0.425 -0.366,1.223 -0.519,1.773 -1.143,4.119 -4.184,8.147 -7.826,10.368 -1.527,0.931 -4.501,2.13 -5.913,2.385 -0.413,0.074 -0.961,0.216 -1.22,0.316 -0.258,0.099 -0.895,0.183 -1.416,0.187 -0.521,0.003 -1.396,0.113 -1.944,0.243 -0.817,0.196 -13.446,0.371 -18.461,0.257 -0.275,-0.006 -0.294,-1.116 -0.334,-20.215 l -0.042,-20.2080002 -2.962,-0.046 c -2.279,-0.035 -2.981,0.004 -3.043,0.167 -0.044,0.117 -0.061,20.6120002 -0.038,45.5460002 z m 11,-28.25 0.043,17.083 4.667,0.045 c 3.43,0.032 5.182,-0.023 6.611,-0.209 1.07,-0.139 2.331,-0.253 2.803,-0.253 0.472,0 1.012,-0.082 1.201,-0.184 0.189,-0.101 0.728,-0.243 1.198,-0.315 0.817,-0.125 1.203,-0.24 2.687,-0.799 5.106,-1.925 7.968,-5.709 8.409,-11.118 0.074,-0.917 0.223,-2.755 0.331,-4.084 0.122,-1.52 0.176,-5.228 0.144,-10.0000002 l -0.051,-7.583 h -3 -3 l -0.083,10.6670002 c -0.064,8.1 -0.134,10.754 -0.292,11.03 -0.115,0.201 -0.208,0.558 -0.208,0.796 0,1.228 -2.197,4.248 -3.525,4.844 -0.307,0.138 -0.671,0.318 -0.809,0.399 -0.137,0.08 -0.55,0.257 -0.916,0.393 -1.732,0.638 -2.309,0.704 -6.167,0.704 h -3.833 l -0.084,-14.416 -0.083,-14.4170002 -2.962,-0.046 c -2.279,-0.035 -2.981,0.004 -3.043,0.167 -0.045,0.117 -0.062,7.9 -0.038,17.2960002 z m 44.958,-5.931 c -0.002,9.476 -0.043,11.499 -0.248,12.264 -0.136,0.504 -0.247,1.301 -0.248,1.771 -10e-4,0.47 -0.115,1.124 -0.252,1.453 -0.138,0.329 -0.253,0.845 -0.256,1.146 -0.003,0.301 -0.113,0.734 -0.244,0.963 -0.131,0.23 -0.241,0.58 -0.244,0.778 -0.004,0.199 -0.11,0.574 -0.236,0.834 -0.126,0.259 -0.344,0.734 -0.484,1.055 -0.776,1.78 -1.637,3.374 -2.631,4.87 -0.36,0.543 -0.655,1.022 -0.655,1.065 0,0.044 -0.077,0.17 -0.17,0.28 -0.896,1.061 -3.33,4.502 -3.33,4.707 0,0.145 0.294,0.579 0.654,0.963 0.359,0.384 0.937,1.073 1.284,1.532 0.347,0.458 0.716,0.908 0.82,1 0.478,0.419 2.947,3.975 3.299,4.75 0.062,0.137 0.261,0.475 0.443,0.75 0.181,0.275 0.373,0.612 0.427,0.75 0.053,0.137 0.167,0.362 0.252,0.5 0.086,0.137 0.2,0.362 0.255,0.5 0.17,0.433 0.597,1.398 0.836,1.888 0.126,0.26 0.232,0.635 0.235,0.834 0.003,0.198 0.115,0.507 0.25,0.685 0.135,0.177 0.245,0.525 0.245,0.771 0,0.246 0.112,0.717 0.25,1.046 0.137,0.329 0.25,0.854 0.25,1.167 0,0.312 0.112,0.837 0.25,1.166 0.137,0.329 0.25,1.033 0.25,1.563 0,0.531 0.092,1.227 0.204,1.547 0.152,0.433 0.227,3.969 0.292,13.749 l 0.087,13.167 h 2.75 2.75 l 0.048,-8.917 c 0.029,-5.447 -0.028,-10.148 -0.146,-12.083 -0.107,-1.742 -0.241,-4.104 -0.3,-5.25 -0.058,-1.146 -0.167,-2.181 -0.244,-2.3 -0.076,-0.119 -0.203,-0.832 -0.282,-1.583 -0.138,-1.323 -0.324,-2.233 -0.703,-3.45 -0.1,-0.321 -0.236,-0.884 -0.301,-1.25 -0.112,-0.627 -0.193,-0.887 -0.762,-2.459 -0.811,-2.238 -1.471,-3.71 -2.606,-5.815 -0.615,-1.138 -2.167,-3.303 -3.06,-4.266 -0.682,-0.736 -0.661,-1.061 0.145,-2.238 0.402,-0.588 0.785,-1.178 0.85,-1.312 0.065,-0.134 0.379,-0.694 0.697,-1.244 0.83,-1.433 1.835,-3.613 2.458,-5.333 0.553,-1.523 0.661,-1.861 0.776,-2.417 0.067,-0.321 0.21,-0.747 0.317,-0.947 0.108,-0.2 0.199,-0.613 0.202,-0.917 0.003,-0.304 0.113,-0.74 0.244,-0.969 0.131,-0.229 0.241,-0.77 0.244,-1.203 0.004,-0.432 0.112,-1.107 0.24,-1.5 0.129,-0.392 0.274,-1.501 0.322,-2.464 0.049,-0.962 0.17,-2.687 0.27,-3.833 0.111,-1.268 0.164,-5.441 0.137,-10.6670002 l -0.046,-8.583 -2.677,-0.046 c -1.472,-0.025 -2.728,0.007 -2.791,0.07 -0.064,0.063 -0.116,5.221 -0.117,11.4620002 z m 13.18,16.014 c 0.089,1.008 0.226,2.808 0.304,4 0.078,1.192 0.226,2.378 0.33,2.636 0.103,0.258 0.188,0.792 0.188,1.187 0,0.395 0.112,1.037 0.25,1.427 0.137,0.39 0.252,0.943 0.256,1.229 0.003,0.287 0.113,0.709 0.244,0.938 0.131,0.229 0.241,0.604 0.245,0.833 0.004,0.229 0.119,0.631 0.256,0.894 0.137,0.263 0.249,0.642 0.249,0.843 0,0.201 0.11,0.512 0.244,0.689 0.135,0.178 0.247,0.478 0.25,0.667 0.003,0.189 0.116,0.489 0.25,0.667 0.135,0.178 0.247,0.483 0.25,0.678 0.003,0.195 0.118,0.448 0.256,0.562 0.137,0.114 0.25,0.288 0.25,0.386 0,0.212 1.046,2.318 1.506,3.031 0.177,0.275 0.398,0.65 0.491,0.833 0.208,0.411 0.556,0.972 0.673,1.083 0.048,0.046 0.209,0.275 0.357,0.508 1.004,1.582 3.688,4.55 5.473,6.051 0.779,0.655 1.526,1.295 1.659,1.422 0.323,0.307 3.511,2.416 4.485,2.967 1.691,0.956 3.871,2.052 4.081,2.052 0.789,0 0.77,-0.328 0.815,14.262 l 0.043,13.655 h 2.75 2.75 l 0.043,-15.446 0.042,-15.446 -0.709,-0.328 c -0.39,-0.18 -1.047,-0.455 -1.459,-0.612 -0.413,-0.157 -0.863,-0.353 -1,-0.436 -0.138,-0.083 -0.363,-0.194 -0.5,-0.246 -0.476,-0.181 -3.585,-1.767 -4.084,-2.082 -0.275,-0.173 -0.668,-0.39 -0.875,-0.481 -0.206,-0.09 -0.375,-0.223 -0.375,-0.295 0,-0.071 -0.236,-0.235 -0.525,-0.362 -0.289,-0.128 -0.654,-0.362 -0.813,-0.521 -0.158,-0.158 -0.728,-0.61 -1.267,-1.004 -5.008,-3.666 -9.713,-11.149 -10.89,-17.324 -0.078,-0.413 -0.224,-0.961 -0.324,-1.22 -0.099,-0.258 -0.181,-0.844 -0.181,-1.302 0,-0.459 -0.093,-0.997 -0.208,-1.198 -0.161,-0.281 -0.227,-4.028 -0.292,-16.53 l -0.083,-16.1670002 -2.677,-0.046 c -1.472,-0.025 -2.728,0.007 -2.791,0.07 -0.178,0.177 -0.12,25.4030002 0.063,27.4760002 z m 11.073,-1.006 c 0.137,1.096 0.249,2.531 0.249,3.187 0,0.657 0.112,1.513 0.25,1.902 0.137,0.39 0.249,0.981 0.249,1.313 -10e-4,0.332 0.105,0.941 0.235,1.354 0.263,0.834 0.547,1.921 0.755,2.888 0.076,0.352 0.221,0.723 0.324,0.825 0.103,0.103 0.187,0.316 0.187,0.473 0,0.158 0.104,0.499 0.232,0.759 0.128,0.259 0.595,1.222 1.038,2.138 1.2,2.485 2.364,4.148 4.266,6.095 1.07,1.095 3.639,3.155 3.933,3.155 0.086,0 0.236,0.096 0.332,0.212 0.43,0.518 4.699,2.429 6.282,2.813 0.367,0.088 0.738,0.232 0.825,0.318 0.087,0.087 0.371,0.157 0.63,0.157 0.26,0 0.742,0.113 1.071,0.25 0.329,0.138 0.956,0.25 1.393,0.25 0.51,0 0.921,0.105 1.15,0.292 l 0.356,0.292 0.037,17.916 0.038,17.917 h 2.75 2.75 l 0.085,-18.083 c 0.047,-9.946 0.103,-18.099 0.125,-18.118 0.022,-0.019 0.321,-0.081 0.665,-0.138 0.344,-0.057 0.908,-0.211 1.253,-0.341 0.346,-0.13 0.838,-0.237 1.094,-0.237 0.255,0 0.61,-0.11 0.788,-0.244 0.178,-0.135 0.473,-0.25 0.657,-0.256 0.183,-0.005 0.479,-0.12 0.657,-0.255 0.177,-0.135 0.453,-0.245 0.611,-0.245 0.158,0 0.5,-0.105 0.76,-0.234 0.259,-0.129 1.056,-0.516 1.77,-0.86 0.713,-0.343 1.337,-0.688 1.384,-0.765 0.048,-0.077 0.191,-0.141 0.317,-0.141 0.246,0 1.923,-1.106 3.417,-2.254 1.311,-1.007 5,-4.912 5,-5.293 0,-0.053 0.288,-0.532 0.64,-1.066 0.352,-0.533 0.921,-1.57 1.264,-2.303 0.343,-0.734 0.73,-1.533 0.86,-1.776 0.13,-0.243 0.239,-0.581 0.242,-0.75 0.003,-0.169 0.115,-0.453 0.25,-0.631 0.134,-0.178 0.244,-0.525 0.244,-0.772 0,-0.246 0.113,-0.717 0.25,-1.046 0.138,-0.329 0.25,-0.888 0.25,-1.243 0,-0.356 0.112,-1.014 0.249,-1.464 0.136,-0.45 0.249,-1.339 0.25,-1.975 0.001,-0.637 0.116,-2.512 0.257,-4.167 0.206,-2.42 0.246,-5.295 0.208,-14.676 l -0.047,-11.6670002 h -2.75 -2.75 l -0.083,15.1670002 c -0.064,11.621 -0.132,15.276 -0.292,15.636 -0.115,0.258 -0.208,0.844 -0.208,1.302 0,0.459 -0.077,0.978 -0.172,1.154 -0.094,0.176 -0.237,0.639 -0.317,1.03 -0.784,3.814 -3.738,8.111 -7.431,10.811 -2.171,1.587 -5.109,2.964 -7.08,3.32 -0.413,0.074 -0.961,0.216 -1.22,0.316 -0.765,0.295 -7.907,0.239 -8.78,-0.069 -0.39,-0.138 -0.948,-0.25 -1.239,-0.25 -0.292,0 -0.677,-0.11 -0.854,-0.245 -0.178,-0.135 -0.5,-0.247 -0.715,-0.25 -0.215,-0.003 -0.59,-0.109 -0.833,-0.235 -0.244,-0.126 -0.818,-0.4 -1.276,-0.608 -2.93,-1.333 -6.01,-4.177 -8.036,-7.421 -0.39,-0.624 -1.381,-2.678 -1.381,-2.862 0,-0.102 -0.104,-0.398 -0.231,-0.657 -0.363,-0.741 -0.63,-1.574 -0.764,-2.389 -0.068,-0.413 -0.209,-0.961 -0.314,-1.219 -0.105,-0.258 -0.191,-0.784 -0.191,-1.168 0,-0.384 -0.092,-0.961 -0.206,-1.281 -0.155,-0.438 -0.227,-4.234 -0.291,-15.332 l -0.086,-14.7500002 -2.677,-0.046 c -1.472,-0.025 -2.728,0.007 -2.791,0.07 -0.251,0.25 -0.127,24.3650002 0.136,26.4700002 z m 11.414,-0.244 c 0.083,0.412 0.198,1.537 0.256,2.5 0.058,0.962 0.181,1.975 0.272,2.25 0.092,0.275 0.227,0.875 0.302,1.333 0.144,0.89 0.41,1.726 0.778,2.443 0.125,0.243 0.227,0.547 0.227,0.674 0,0.128 0.337,0.746 0.75,1.374 0.412,0.628 0.75,1.191 0.75,1.251 0,0.914 4.846,4.489 6.121,4.514 0.163,0.003 0.483,0.113 0.712,0.244 0.229,0.131 0.717,0.243 1.083,0.248 0.367,0.005 1.267,0.118 2,0.25 1.375,0.249 4.494,0.014 5.834,-0.441 0.275,-0.093 0.738,-0.229 1.03,-0.301 2.225,-0.554 5.957,-3.469 7.048,-5.506 0.774,-1.444 1.226,-2.421 1.35,-2.916 0.069,-0.275 0.201,-0.725 0.294,-1 0.385,-1.147 0.565,-2.092 0.701,-3.667 0.079,-0.917 0.227,-2.379 0.33,-3.25 0.126,-1.072 0.169,-5.565 0.133,-13.917 l -0.053,-12.3330002 h -2.75 -2.75 l -0.091,15.0000002 c -0.094,15.47 -0.103,15.671 -0.763,16.942 -0.126,0.244 -0.229,0.537 -0.229,0.652 0,0.751 -1.86,2.954 -3.084,3.652 -2.511,1.434 -7.773,1.69 -9.916,0.483 -0.138,-0.077 -0.505,-0.255 -0.817,-0.395 -0.632,-0.284 -2.517,-2.149 -2.517,-2.491 0,-0.12 -0.112,-0.312 -0.25,-0.426 -0.137,-0.114 -0.25,-0.372 -0.25,-0.572 0,-0.201 -0.11,-0.51 -0.244,-0.688 -0.135,-0.178 -0.247,-0.525 -0.25,-0.771 -0.003,-0.246 -0.099,-0.659 -0.214,-0.917 -0.16,-0.359 -0.228,-3.981 -0.292,-15.469 l -0.083,-15.0000002 -2.677,-0.046 c -1.472,-0.025 -2.728,0.007 -2.791,0.07 -0.173,0.172 -0.125,25.3580002 0.05,26.2260002 z m 46.835,-9.999 c 0,13.793 -0.036,16.23 -0.249,16.931 -0.136,0.45 -0.249,1.177 -0.25,1.615 -10e-4,0.438 -0.114,1.066 -0.251,1.395 -0.138,0.329 -0.25,0.813 -0.25,1.075 0,0.262 -0.104,0.759 -0.23,1.105 -0.126,0.345 -0.362,1.078 -0.524,1.628 -0.279,0.947 -0.431,1.354 -0.98,2.625 -0.313,0.724 -0.914,1.981 -1.096,2.292 -0.08,0.137 -0.19,0.362 -0.243,0.5 -0.054,0.137 -0.246,0.475 -0.427,0.75 -0.182,0.275 -0.382,0.612 -0.445,0.75 -0.779,1.686 -6.92,8 -7.781,8 -0.046,0 -0.537,0.301 -1.091,0.669 -0.555,0.368 -1.179,0.743 -1.387,0.833 -0.209,0.09 -0.511,0.239 -0.671,0.331 -0.161,0.091 -0.423,0.242 -0.584,0.334 -0.16,0.093 -0.404,0.211 -0.541,0.262 -0.138,0.052 -0.363,0.165 -0.5,0.25 -0.138,0.086 -0.363,0.2 -0.5,0.253 -0.138,0.053 -0.55,0.212 -0.917,0.353 -0.367,0.141 -0.892,0.35 -1.167,0.465 -0.837,0.349 -1.643,0.617 -2.119,0.704 -0.826,0.15 -0.801,-0.369 -0.757,16.064 l 0.043,15.565 h 2.75 2.75 l 0.043,-13.878 0.042,-13.879 1.291,-0.592 c 1.811,-0.831 2.501,-1.18 3.457,-1.749 0.459,-0.273 1.021,-0.586 1.25,-0.695 2.607,-1.241 11,-9.551 11,-10.891 0,-0.079 1.242,-2.229 1.675,-2.899 0.088,-0.138 0.206,-0.363 0.261,-0.5 0.18,-0.448 1.089,-2.408 1.274,-2.75 0.1,-0.184 0.236,-0.596 0.303,-0.917 0.13,-0.624 0.391,-1.415 0.759,-2.297 0.126,-0.301 0.228,-0.81 0.228,-1.131 0,-0.32 0.113,-0.852 0.25,-1.181 0.138,-0.329 0.25,-0.86 0.25,-1.179 0,-0.32 0.109,-1.079 0.241,-1.688 0.52,-2.394 0.672,-7.146 0.674,-21.107 l 0.002,-13.6670002 -2.677,-0.046 c -1.472,-0.025 -2.728,0.007 -2.791,0.07 -0.064,0.063 -0.115,7.365 -0.115,16.2270002 z m -224.463,-1.827 0.046,2.576 15.458,0.043 c 14.577,0.04 15.459,0.059 15.46,0.333 0,0.16 0.019,16.791 0.041,36.957 l 0.041,36.667 h 2.75 2.75 l 0.042,-36.957 0.042,-36.958 15.708,-0.042 15.708,-0.043 v -2.75 -2.75 l -33.963,-0.042 c -27.669,-0.034 -33.979,-0.002 -34.047,0.174 -0.045,0.118 -0.062,1.375 -0.036,2.792 z m 0,11.5 0.046,2.576 9.958,0.043 c 9.339,0.04 9.959,0.061 9.96,0.333 0,0.16 0.019,14.203 0.041,31.207 l 0.041,30.917 h 2.75 2.75 v -34 -34 l -12.713,-0.043 c -10.299,-0.034 -12.729,-0.001 -12.796,0.174 -0.046,0.119 -0.063,1.376 -0.037,2.793 z m 42.503,31.243 0.043,33.833 h 2.75 2.75 l 0.042,-31.207 0.042,-31.207 9.958,-0.043 9.958,-0.043 v -2.75 -2.75 l -12.713,-0.043 c -10.083,-0.034 -12.73,0.001 -12.793,0.167 -0.044,0.115 -0.06,15.434 -0.037,34.043 z m -182.999998,14.25 0.043,19.583 h 2.75 2.75 l 0.042,-16.958 0.043,-16.959 h 9.416 c 8.855,0 9.416,0.018 9.418,0.292 0.001,0.16 0.019,7.792 0.041,16.958 l 0.04,16.667 h 2.75 2.75 v -19.75 -19.75 l -14.963,-0.043 c -11.883,-0.033 -14.98,10e-4 -15.043,0.167 -0.044,0.115 -0.06,9.022 -0.037,19.793 z m 237.499998,0.25 0.043,19.333 h 3 3 l 0.042,-16.716 0.043,-16.716 4.457,0.062 c 2.989,0.042 4.705,0.133 5.208,0.279 0.927,0.267 2.001,0.66 2.333,0.853 0.138,0.08 0.475,0.26 0.75,0.4 1.064,0.542 2.306,1.96 2.776,3.171 0.542,1.397 0.808,2.402 0.808,3.054 0,0.371 0.093,0.886 0.208,1.144 0.158,0.355 0.229,3.383 0.292,12.469 l 0.083,12 h 3 3 l 0.049,-8.833 c 0.031,-5.665 -0.019,-9.611 -0.141,-11 -0.105,-1.192 -0.247,-3.03 -0.315,-4.084 -0.069,-1.054 -0.212,-2.127 -0.317,-2.386 -0.106,-0.258 -0.195,-0.745 -0.199,-1.083 -0.003,-0.338 -0.113,-0.801 -0.244,-1.031 -0.131,-0.229 -0.241,-0.583 -0.244,-0.786 -0.015,-0.979 -1.814,-4.357 -2.915,-5.476 -1.043,-1.06 -4.227,-2.893 -5.053,-2.91 -0.158,-0.003 -0.475,-0.113 -0.704,-0.244 -0.229,-0.131 -0.656,-0.241 -0.948,-0.244 -0.292,-0.004 -0.742,-0.092 -1,-0.197 -0.258,-0.104 -1.294,-0.252 -2.302,-0.329 -1.009,-0.076 -2.584,-0.213 -3.5,-0.303 -2.554,-0.253 -11.074,-0.229 -11.173,0.031 -0.044,0.115 -0.06,8.908 -0.037,19.542 z"
     stroke="none"
     fill="#fb6404"
     fill-rule="evenodd"
     style="display:inline;image-rendering:auto"
     sodipodi:nodetypes="cccccccccccccccscsccccccccccccccccccccccccccccccccccccccccccssccsssscscscscccccccsccccccccccccscscccscccccccscccccscccscccscscccccccsscscccscccscsccsscscscscccccccsccccccscscccsccsscccccccccccscscssccccccccccccccscccscscsscccccscscscccccccscccccccscccccccccccscccccscscscccccsccccccccccccccccccccccccccscsscccsscccccsscscccccccscsccsscscccscsccsccccccscccccccccccccccccsccccccccccsscccsccccccccscscccccscscccccccccscscscsccccccccccscccccsccccsscccccccccsscsccsssscscscsccccsccsccccccccccccscscccscccccssscccccscccscccscscccccccsscscccscccscsccsscscscscccccccsccccccscscccsccsscccccssscccscscssccccccccccccccscccscscssccccsscscscscccccscccccccscccccccccccscccccscscscccscccccccccccccccccccccccccccccccccccccccccccccccccscscccccccccccccccccccsccccccccccccscscccccc"
     clip-path="none" />
  <g
     id="g1399">
    <path
       id="path1395"
       d="m 0.048252,0.1788228 c -0.044,0.117 -0.061,20.6120002 -0.038,45.5460002 l 0.043,45.333 h 2.75 2.75 v -45.5 -45.5000002 l -2.712,-0.046 c -2.078,-0.035 -2.731,0.004 -2.793,0.167 m 11.5,0 c -0.044,0.117 -0.061,20.6120002 -0.038,45.5460002 l 0.043,45.333 h 3 3 l 0.042,-22.708 0.043,-22.709 h 20.666 c 19.57,0 20.666,0.016 20.667,0.292 10e-4,0.16 0.02,10.379 0.042,22.708 l 0.04,22.417 h 2.75 2.75 v -45.5 -45.5000002 h -2.75 -2.75 l -0.038,19.8990002 c -0.021,10.945 -0.066,19.927 -0.098,19.96 -0.042,0.041 -36.427,0.095 -40.988,0.06 -0.275,-0.002 -0.294,-1.099 -0.334,-19.961 l -0.042,-19.9580002 -2.962,-0.046 c -2.279,-0.035 -2.981,0.004 -3.043,0.167 m 11.5,0 c -0.044,0.117 -0.062,7.787 -0.038,17.0460002 l 0.043,16.833 h 15 15 v -17 -17.0000002 h -2.75 -2.75 l -0.037,14.1480002 c -0.021,7.782 -0.065,14.176 -0.099,14.211 -0.046,0.045 -16.149,0.1 -18.488,0.062 -0.274,-0.004 -0.293,-0.828 -0.333,-14.213 l -0.043,-14.2080002 -2.712,-0.046 c -2.078,-0.035 -2.731,0.004 -2.793,0.167 m 47,0 c -0.044,0.117 -0.061,20.6120002 -0.038,45.5460002 l 0.043,45.333 h 2.75 2.75 v -45.5 -45.5000002 l -2.712,-0.046 c -2.078,-0.035 -2.731,0.004 -2.793,0.167 m 12.537,-0.097 c -0.183,0.183 -0.124,25.4350002 0.064,27.3930002 0.093,0.962 0.231,2.762 0.307,4 0.076,1.237 0.223,2.461 0.326,2.719 0.103,0.258 0.188,0.792 0.188,1.187 0,0.395 0.112,1.037 0.25,1.427 0.137,0.39 0.252,0.943 0.256,1.229 0.003,0.287 0.113,0.709 0.244,0.938 0.131,0.229 0.241,0.604 0.245,0.833 0.004,0.229 0.119,0.631 0.256,0.894 0.137,0.263 0.249,0.642 0.249,0.843 0,0.201 0.11,0.512 0.244,0.689 0.135,0.178 0.247,0.478 0.25,0.667 0.003,0.189 0.116,0.489 0.25,0.667 0.135,0.178 0.247,0.483 0.25,0.678 0.003,0.195 0.118,0.448 0.256,0.562 0.137,0.114 0.25,0.288 0.25,0.386 0,0.212 1.046,2.318 1.506,3.031 0.177,0.275 0.398,0.65 0.491,0.833 0.208,0.411 0.556,0.972 0.673,1.083 0.048,0.046 0.209,0.275 0.357,0.508 1.004,1.582 3.688,4.55 5.473,6.051 0.779,0.655 1.526,1.295 1.659,1.422 0.323,0.307 3.510998,2.416 4.484998,2.967 1.691,0.956 3.871,2.052 4.081,2.052 0.789,0 0.77,-0.328 0.815,14.262 l 0.043,13.655 h 2.75 2.75 l 0.043,-15.446 0.042,-15.446 -0.709,-0.328 c -0.39,-0.18 -1.047,-0.455 -1.459,-0.612 -0.413,-0.157 -0.863,-0.353 -1,-0.436 -0.138,-0.083 -0.363,-0.194 -0.5,-0.246 -0.476,-0.181 -3.585,-1.767 -4.084,-2.082 -0.275,-0.173 -0.668,-0.39 -0.875,-0.481 -0.206,-0.09 -0.375,-0.223 -0.375,-0.295 0,-0.071 -0.236,-0.235 -0.525,-0.362 -0.289,-0.128 -0.654,-0.362 -0.813,-0.521 -0.158,-0.158 -0.728,-0.61 -1.267,-1.004 -5.007998,-3.666 -9.712998,-11.149 -10.889998,-17.324 -0.078,-0.413 -0.224,-0.961 -0.324,-1.22 -0.099,-0.258 -0.181,-0.844 -0.181,-1.302 0,-0.459 -0.093,-0.997 -0.208,-1.198 -0.161,-0.281 -0.227,-4.028 -0.292,-16.53 l -0.083,-16.1670002 -2.677,-0.046 c -1.472,-0.025 -2.728,0.007 -2.791,0.07 m 11,0 c -0.251,0.25 -0.127,24.3650002 0.136,26.4700002 0.137,1.096 0.249,2.531 0.249,3.187 0,0.657 0.112,1.513 0.25,1.902 0.137,0.39 0.249,0.981 0.249,1.313 -10e-4,0.332 0.105,0.941 0.235,1.354 0.263,0.834 0.547,1.921 0.755,2.888 0.076,0.352 0.221,0.723 0.324,0.825 0.103,0.103 0.187,0.316 0.187,0.473 0,0.158 0.104,0.499 0.232,0.759 0.128,0.259 0.595,1.222 1.038,2.138 1.2,2.485 2.364,4.148 4.265998,6.095 1.07,1.095 3.639,3.155 3.933,3.155 0.086,0 0.236,0.096 0.332,0.212 0.43,0.518 4.699,2.429 6.282,2.813 0.367,0.088 0.738,0.232 0.825,0.318 0.087,0.087 0.371,0.157 0.63,0.157 0.26,0 0.742,0.113 1.071,0.25 0.329,0.138 0.956,0.25 1.393,0.25 0.51,0 0.921,0.105 1.15,0.292 l 0.356,0.292 0.037,17.916 0.038,17.917 h 2.75 2.75 l 0.085,-18.083 c 0.047,-9.946 0.103,-18.099 0.125,-18.118 0.022,-0.019 0.321,-0.081 0.665,-0.138 0.344,-0.057 0.908,-0.211 1.253,-0.341 0.346,-0.13 0.838,-0.237 1.094,-0.237 0.255,0 0.61,-0.11 0.788,-0.244 0.178,-0.135 0.473,-0.25 0.657,-0.256 0.183,-0.005 0.479,-0.12 0.657,-0.255 0.177,-0.135 0.453,-0.245 0.611,-0.245 0.158,0 0.5,-0.105 0.76,-0.234 0.259,-0.129 1.056,-0.516 1.77,-0.86 0.713,-0.343 1.337,-0.688 1.384,-0.765 0.048,-0.077 0.191,-0.141 0.317,-0.141 0.246,0 1.923,-1.106 3.417,-2.254 1.311,-1.007 5,-4.912 5,-5.293 0,-0.053 0.288,-0.532 0.64,-1.066 0.352,-0.533 0.921,-1.57 1.264,-2.303 0.343,-0.734 0.73,-1.533 0.86,-1.776 0.13,-0.243 0.239,-0.581 0.242,-0.75 0.003,-0.169 0.115,-0.453 0.25,-0.631 0.134,-0.178 0.244,-0.525 0.244,-0.772 0,-0.246 0.113,-0.717 0.25,-1.046 0.138,-0.329 0.25,-0.888 0.25,-1.243 0,-0.356 0.112,-1.014 0.249,-1.464 0.136,-0.45 0.249,-1.339 0.25,-1.975 10e-4,-0.637 0.116,-2.512 0.257,-4.167 0.206,-2.42 0.246,-5.295 0.208,-14.676 l -0.047,-11.6670002 h -2.75 -2.75 l -0.083,15.1670002 c -0.064,11.621 -0.132,15.276 -0.292,15.636 -0.115,0.258 -0.208,0.844 -0.208,1.302 0,0.459 -0.077,0.978 -0.172,1.154 -0.094,0.176 -0.237,0.639 -0.317,1.03 -0.784,3.814 -3.738,8.111 -7.431,10.811 -2.171,1.587 -5.109,2.964 -7.08,3.32 -0.413,0.074 -0.961,0.216 -1.22,0.316 -0.765,0.295 -7.907,0.239 -8.78,-0.069 -0.39,-0.138 -0.948,-0.25 -1.239,-0.25 -0.292,0 -0.677,-0.11 -0.854,-0.245 -0.178,-0.135 -0.5,-0.247 -0.715,-0.25 -0.215,-0.003 -0.59,-0.109 -0.833,-0.235 -0.244,-0.126 -0.818,-0.4 -1.276,-0.608 -2.93,-1.333 -6.01,-4.177 -8.036,-7.421 -0.39,-0.624 -1.381,-2.678 -1.381,-2.862 0,-0.102 -0.104,-0.398 -0.231,-0.657 -0.363,-0.741 -0.63,-1.574 -0.764,-2.389 -0.068,-0.413 -0.208998,-0.961 -0.313998,-1.219 -0.105,-0.258 -0.191,-0.784 -0.191,-1.168 0,-0.384 -0.092,-0.961 -0.206,-1.281 -0.155,-0.438 -0.227,-4.234 -0.291,-15.332 l -0.086,-14.7500002 -2.677,-0.046 c -1.472,-0.025 -2.728,0.007 -2.791,0.07 m 11.499998,0 c -0.173,0.172 -0.125,25.3580002 0.05,26.2260002 0.083,0.412 0.198,1.537 0.256,2.5 0.058,0.962 0.181,1.975 0.272,2.25 0.092,0.275 0.227,0.875 0.302,1.333 0.144,0.89 0.41,1.726 0.778,2.443 0.125,0.243 0.227,0.547 0.227,0.674 0,0.128 0.337,0.746 0.75,1.374 0.412,0.628 0.75,1.191 0.75,1.251 0,0.914 4.846,4.489 6.121,4.514 0.163,0.003 0.483,0.113 0.712,0.244 0.229,0.131 0.717,0.243 1.083,0.248 0.367,0.005 1.267,0.118 2,0.25 1.375,0.249 4.494,0.014 5.834,-0.441 0.275,-0.093 0.738,-0.229 1.03,-0.301 2.225,-0.554 5.957,-3.469 7.048,-5.506 0.774,-1.444 1.226,-2.421 1.35,-2.916 0.069,-0.275 0.201,-0.725 0.294,-1 0.385,-1.147 0.565,-2.092 0.701,-3.667 0.079,-0.917 0.227,-2.379 0.33,-3.25 0.126,-1.072 0.169,-5.565 0.133,-13.917 l -0.053,-12.3330002 h -2.75 -2.75 l -0.091,15.0000002 c -0.094,15.47 -0.103,15.671 -0.763,16.942 -0.126,0.244 -0.229,0.537 -0.229,0.652 0,0.751 -1.86,2.954 -3.084,3.652 -2.511,1.434 -7.773,1.69 -9.916,0.483 -0.138,-0.077 -0.505,-0.255 -0.817,-0.395 -0.632,-0.284 -2.517,-2.149 -2.517,-2.491 0,-0.12 -0.112,-0.312 -0.25,-0.426 -0.137,-0.114 -0.25,-0.372 -0.25,-0.572 0,-0.201 -0.11,-0.51 -0.244,-0.688 -0.135,-0.178 -0.247,-0.525 -0.25,-0.771 -0.003,-0.246 -0.099,-0.659 -0.214,-0.917 -0.16,-0.359 -0.228,-3.981 -0.292,-15.469 l -0.083,-15.0000002 -2.677,-0.046 c -1.472,-0.025 -2.728,0.007 -2.791,0.07 m 47,0 c -0.064,0.063 -0.115,7.365 -0.115,16.2270002 0,13.793 -0.036,16.23 -0.249,16.931 -0.136,0.45 -0.249,1.177 -0.25,1.615 -0.001,0.438 -0.114,1.066 -0.251,1.395 -0.138,0.329 -0.25,0.813 -0.25,1.075 0,0.262 -0.104,0.759 -0.23,1.105 -0.126,0.345 -0.362,1.078 -0.524,1.628 -0.279,0.947 -0.431,1.354 -0.98,2.625 -0.313,0.724 -0.914,1.981 -1.096,2.292 -0.08,0.137 -0.19,0.362 -0.243,0.5 -0.054,0.137 -0.246,0.475 -0.427,0.75 -0.182,0.275 -0.382,0.612 -0.445,0.75 -0.779,1.686 -6.92,8 -7.781,8 -0.046,0 -0.537,0.301 -1.091,0.669 -0.555,0.368 -1.179,0.743 -1.387,0.833 -0.209,0.09 -0.511,0.239 -0.671,0.331 -0.161,0.091 -0.423,0.242 -0.584,0.334 -0.16,0.093 -0.404,0.211 -0.541,0.262 -0.138,0.052 -0.363,0.165 -0.5,0.25 -0.138,0.086 -0.363,0.2 -0.5,0.253 -0.138,0.053 -0.55,0.212 -0.917,0.353 -0.367,0.141 -0.892,0.35 -1.167,0.465 -0.837,0.349 -1.643,0.617 -2.119,0.704 -0.826,0.15 -0.801,-0.369 -0.757,16.064 l 0.043,15.565 h 2.75 2.75 l 0.043,-13.878 0.042,-13.879 1.291,-0.592 c 1.811,-0.831 2.501,-1.18 3.457,-1.749 0.459,-0.273 1.021,-0.586 1.25,-0.695 2.607,-1.241 11,-9.551 11,-10.891 0,-0.079 1.242,-2.229 1.675,-2.899 0.088,-0.138 0.206,-0.363 0.261,-0.5 0.18,-0.448 1.089,-2.408 1.274,-2.75 0.1,-0.184 0.236,-0.596 0.303,-0.917 0.13,-0.624 0.391,-1.415 0.759,-2.297 0.126,-0.301 0.228,-0.81 0.228,-1.131 0,-0.32 0.113,-0.852 0.25,-1.181 0.138,-0.329 0.25,-0.873 0.25,-1.21 0,-0.336 0.104,-1.02 0.23,-1.521 0.126,-0.5 0.275,-1.943 0.332,-3.206 0.057,-1.263 0.182,-2.988 0.278,-3.833 0.112,-0.985 0.157,-6.268 0.126,-14.704 l -0.049,-13.1670002 -2.677,-0.046 c -1.472,-0.025 -2.728,0.007 -2.791,0.07 m 11.458,0.108 c -0.045,0.118 -0.062,1.375 -0.036,2.792 l 0.046,2.576 h 34 34 v -2.75 -2.75 l -33.963,-0.042 c -27.669,-0.034 -33.979,-0.002 -34.047,0.174 m 74.505,-0.011 c -0.044,0.117 -0.061,20.6120002 -0.038,45.5460002 l 0.043,45.333 h 3 3 v -45.5 -45.5000002 l -2.962,-0.046 c -2.279,-0.035 -2.981,0.004 -3.043,0.167 m 11.5,0 c -0.044,0.117 -0.061,20.6120002 -0.038,45.5460002 l 0.043,45.333 h 3 3 l 0.042,-22.458 0.043,-22.459 9.041,0.003 c 7.345,0.003 9.259,0.049 10.207,0.25 0.642,0.136 1.626,0.247 2.188,0.247 0.561,0 1.339,0.113 1.729,0.25 0.39,0.138 1.018,0.253 1.396,0.256 0.378,0.003 0.875,0.113 1.104,0.244 0.229,0.131 0.62,0.241 0.869,0.244 0.249,0.004 0.737,0.127 1.084,0.275 1.563,0.665 1.812,0.777 2.047,0.919 0.137,0.083 0.456,0.232 0.708,0.331 0.252,0.099 0.459,0.248 0.459,0.331 0,0.083 0.093,0.151 0.208,0.152 0.261,0.002 1.825,1.337 2.73,2.332 1.292,1.419 2.401,3.231 3.316,5.416 0.115,0.275 0.33,0.784 0.477,1.131 0.148,0.347 0.271,0.797 0.275,1 0.003,0.203 0.113,0.557 0.244,0.786 0.131,0.229 0.241,0.689 0.244,1.021 0.003,0.333 0.118,0.874 0.256,1.203 0.137,0.329 0.25,1.009 0.25,1.51 0,0.501 0.093,1.122 0.208,1.38 0.158,0.356 0.228,3.5 0.292,13.053 l 0.083,12.583 h 3 3 l 0.046,-9.25 c 0.037,-7.328 -0.006,-9.791 -0.208,-11.855 -0.14,-1.432 -0.255,-3.135 -0.255,-3.783 0,-0.649 -0.112,-1.611 -0.25,-2.139 -0.137,-0.528 -0.25,-1.272 -0.25,-1.654 0,-0.382 -0.112,-0.964 -0.25,-1.293 -0.137,-0.329 -0.252,-0.845 -0.256,-1.146 -0.003,-0.301 -0.113,-0.734 -0.244,-0.963 -0.131,-0.229 -0.243,-0.642 -0.249,-0.917 -0.006,-0.275 -0.121,-0.646 -0.256,-0.824 -0.135,-0.177 -0.245,-0.446 -0.245,-0.595 0,-0.511 -1.33,-3.385 -2.326,-5.026 -1.378,-2.269 -5.225,-5.743 -8.448,-7.626 -1.432,-0.837 -1.589,-1.185 -0.845,-1.865 0.29,-0.264 0.589,-0.481 0.665,-0.481 0.913,0 6.332,-5.164 7.849,-7.48 1.511,-2.307 2.705,-4.969 3.112,-6.936 0.076,-0.367 0.213,-0.967 0.305,-1.334 0.389,-1.549 0.577,-2.774 0.691,-4.5 0.066,-1.008 0.209,-2.808 0.317,-4 0.127,-1.401 0.179,-4.846 0.147,-9.7500002 l -0.05,-7.583 h -3 -3 l -0.083,10.8330002 c -0.063,8.152 -0.135,10.95 -0.292,11.303 -0.115,0.258 -0.208,0.81 -0.208,1.227 0,0.418 -0.109,1.106 -0.242,1.531 -0.132,0.425 -0.366,1.223 -0.519,1.773 -1.143,4.119 -4.184,8.147 -7.826,10.368 -1.527,0.931 -4.501,2.13 -5.913,2.385 -0.413,0.074 -0.961,0.216 -1.22,0.316 -0.258,0.099 -0.895,0.183 -1.416,0.187 -0.521,0.003 -1.396,0.113 -1.944,0.243 -0.817,0.196 -13.446,0.371 -18.461,0.257 -0.275,-0.006 -0.294,-1.116 -0.334,-20.215 l -0.042,-20.2080002 -2.962,-0.046 c -2.279,-0.035 -2.981,0.004 -3.043,0.167 m 11,0 c -0.045,0.117 -0.062,7.9 -0.038,17.2960002 l 0.043,17.083 4.667,0.045 c 3.43,0.032 5.182,-0.023 6.611,-0.209 1.07,-0.139 2.331,-0.253 2.803,-0.253 0.472,0 1.012,-0.082 1.201,-0.184 0.189,-0.101 0.728,-0.243 1.198,-0.315 0.817,-0.125 1.203,-0.24 2.687,-0.799 5.106,-1.925 7.968,-5.709 8.409,-11.118 0.074,-0.917 0.223,-2.755 0.331,-4.084 0.122,-1.52 0.176,-5.228 0.144,-10.0000002 l -0.051,-7.583 h -3 -3 l -0.083,10.6670002 c -0.064,8.1 -0.134,10.754 -0.292,11.03 -0.115,0.201 -0.208,0.558 -0.208,0.796 0,1.228 -2.197,4.248 -3.525,4.844 -0.307,0.138 -0.671,0.318 -0.809,0.399 -0.137,0.08 -0.55,0.257 -0.916,0.393 -1.732,0.638 -2.309,0.704 -6.167,0.704 h -3.833 l -0.084,-14.416 -0.083,-14.4170002 -2.962,-0.046 c -2.279,-0.035 -2.981,0.004 -3.043,0.167 m 45.037,-0.097 c -0.064,0.063 -0.116,5.221 -0.117,11.4620002 -0.002,9.476 -0.043,11.499 -0.248,12.264 -0.136,0.504 -0.247,1.301 -0.248,1.771 -10e-4,0.47 -0.115,1.124 -0.252,1.453 -0.138,0.329 -0.253,0.845 -0.256,1.146 -0.003,0.301 -0.113,0.734 -0.244,0.963 -0.131,0.23 -0.241,0.58 -0.244,0.778 -0.004,0.199 -0.11,0.574 -0.236,0.834 -0.126,0.259 -0.344,0.734 -0.484,1.055 -0.776,1.78 -1.637,3.374 -2.631,4.87 -0.36,0.543 -0.655,1.022 -0.655,1.065 0,0.044 -0.077,0.17 -0.17,0.28 -0.896,1.061 -3.33,4.502 -3.33,4.707 0,0.145 0.294,0.579 0.654,0.963 0.359,0.384 0.937,1.073 1.284,1.532 0.347,0.458 0.716,0.908 0.82,1 0.478,0.419 2.947,3.975 3.299,4.75 0.062,0.137 0.261,0.475 0.443,0.75 0.181,0.275 0.373,0.612 0.427,0.75 0.053,0.137 0.167,0.362 0.252,0.5 0.086,0.137 0.2,0.362 0.255,0.5 0.17,0.433 0.597,1.398 0.836,1.888 0.126,0.26 0.232,0.635 0.235,0.834 0.003,0.198 0.115,0.507 0.25,0.685 0.135,0.177 0.245,0.525 0.245,0.771 0,0.246 0.112,0.717 0.25,1.046 0.137,0.329 0.25,0.854 0.25,1.167 0,0.312 0.112,0.837 0.25,1.166 0.137,0.329 0.25,1.033 0.25,1.563 0,0.531 0.092,1.227 0.204,1.547 0.152,0.433 0.227,3.969 0.292,13.749 l 0.087,13.167 h 2.75 2.75 l 0.048,-8.917 c 0.029,-5.447 -0.028,-10.148 -0.146,-12.083 -0.107,-1.742 -0.241,-4.104 -0.3,-5.25 -0.058,-1.146 -0.167,-2.181 -0.244,-2.3 -0.076,-0.119 -0.203,-0.832 -0.282,-1.583 -0.138,-1.323 -0.324,-2.233 -0.703,-3.45 -0.1,-0.321 -0.236,-0.884 -0.301,-1.25 -0.112,-0.627 -0.193,-0.887 -0.762,-2.459 -0.811,-2.238 -1.471,-3.71 -2.606,-5.815 -0.615,-1.138 -2.167,-3.303 -3.06,-4.266 -0.682,-0.736 -0.661,-1.061 0.145,-2.238 0.402,-0.588 0.785,-1.178 0.85,-1.312 0.065,-0.134 0.379,-0.694 0.697,-1.244 0.83,-1.433 1.835,-3.613 2.458,-5.333 0.553,-1.523 0.661,-1.861 0.776,-2.417 0.067,-0.321 0.21,-0.747 0.317,-0.947 0.108,-0.2 0.199,-0.613 0.202,-0.917 0.003,-0.304 0.113,-0.74 0.244,-0.969 0.131,-0.229 0.241,-0.77 0.244,-1.203 0.004,-0.432 0.112,-1.107 0.24,-1.5 0.129,-0.392 0.274,-1.501 0.322,-2.464 0.049,-0.962 0.17,-2.687 0.27,-3.833 0.111,-1.268 0.164,-5.441 0.137,-10.6670002 l -0.046,-8.583 -2.677,-0.046 c -1.472,-0.025 -2.728,0.007 -2.791,0.07 m 13,0 c -0.178,0.177 -0.12,25.4030002 0.063,27.4760002 0.089,1.008 0.226,2.808 0.304,4 0.078,1.192 0.226,2.378 0.33,2.636 0.103,0.258 0.188,0.792 0.188,1.187 0,0.395 0.112,1.037 0.25,1.427 0.137,0.39 0.252,0.943 0.256,1.229 0.003,0.287 0.113,0.709 0.244,0.938 0.131,0.229 0.241,0.604 0.245,0.833 0.004,0.229 0.119,0.631 0.256,0.894 0.137,0.263 0.249,0.642 0.249,0.843 0,0.201 0.11,0.512 0.244,0.689 0.135,0.178 0.247,0.478 0.25,0.667 0.003,0.189 0.116,0.489 0.25,0.667 0.135,0.178 0.247,0.483 0.25,0.678 0.003,0.195 0.118,0.448 0.256,0.562 0.137,0.114 0.25,0.288 0.25,0.386 0,0.212 1.046,2.318 1.506,3.031 0.177,0.275 0.398,0.65 0.491,0.833 0.208,0.411 0.556,0.972 0.673,1.083 0.048,0.046 0.209,0.275 0.357,0.508 1.004,1.582 3.688,4.55 5.473,6.051 0.779,0.655 1.526,1.295 1.659,1.422 0.323,0.307 3.511,2.416 4.485,2.967 1.691,0.956 3.871,2.052 4.081,2.052 0.789,0 0.77,-0.328 0.815,14.262 l 0.043,13.655 h 2.75 2.75 l 0.043,-15.446 0.042,-15.446 -0.709,-0.328 c -0.39,-0.18 -1.047,-0.455 -1.459,-0.612 -0.413,-0.157 -0.863,-0.353 -1,-0.436 -0.138,-0.083 -0.363,-0.194 -0.5,-0.246 -0.476,-0.181 -3.585,-1.767 -4.084,-2.082 -0.275,-0.173 -0.668,-0.39 -0.875,-0.481 -0.206,-0.09 -0.375,-0.223 -0.375,-0.295 0,-0.071 -0.236,-0.235 -0.525,-0.362 -0.289,-0.128 -0.654,-0.362 -0.813,-0.521 -0.158,-0.158 -0.728,-0.61 -1.267,-1.004 -5.008,-3.666 -9.713,-11.149 -10.89,-17.324 -0.078,-0.413 -0.224,-0.961 -0.324,-1.22 -0.099,-0.258 -0.181,-0.844 -0.181,-1.302 0,-0.459 -0.093,-0.997 -0.208,-1.198 -0.161,-0.281 -0.227,-4.028 -0.292,-16.53 l -0.083,-16.1670002 -2.677,-0.046 c -1.472,-0.025 -2.728,0.007 -2.791,0.07 m 11,0 c -0.251,0.25 -0.127,24.3650002 0.136,26.4700002 0.137,1.096 0.249,2.531 0.249,3.187 0,0.657 0.112,1.513 0.25,1.902 0.137,0.39 0.249,0.981 0.249,1.313 -10e-4,0.332 0.105,0.941 0.235,1.354 0.263,0.834 0.547,1.921 0.755,2.888 0.076,0.352 0.221,0.723 0.324,0.825 0.103,0.103 0.187,0.316 0.187,0.473 0,0.158 0.104,0.499 0.232,0.759 0.128,0.259 0.595,1.222 1.038,2.138 1.2,2.485 2.364,4.148 4.266,6.095 1.07,1.095 3.639,3.155 3.933,3.155 0.086,0 0.236,0.096 0.332,0.212 0.43,0.518 4.699,2.429 6.282,2.813 0.367,0.088 0.738,0.232 0.825,0.318 0.087,0.087 0.371,0.157 0.63,0.157 0.26,0 0.742,0.113 1.071,0.25 0.329,0.138 0.956,0.25 1.393,0.25 0.51,0 0.921,0.105 1.15,0.292 l 0.356,0.292 0.037,17.916 0.038,17.917 h 2.75 2.75 l 0.085,-18.083 c 0.047,-9.946 0.103,-18.099 0.125,-18.118 0.022,-0.019 0.321,-0.081 0.665,-0.138 0.344,-0.057 0.908,-0.211 1.253,-0.341 0.346,-0.13 0.838,-0.237 1.094,-0.237 0.255,0 0.61,-0.11 0.788,-0.244 0.178,-0.135 0.473,-0.25 0.657,-0.256 0.183,-0.005 0.479,-0.12 0.657,-0.255 0.177,-0.135 0.453,-0.245 0.611,-0.245 0.158,0 0.5,-0.105 0.76,-0.234 0.259,-0.129 1.056,-0.516 1.77,-0.86 0.713,-0.343 1.337,-0.688 1.384,-0.765 0.048,-0.077 0.191,-0.141 0.317,-0.141 0.246,0 1.923,-1.106 3.417,-2.254 1.311,-1.007 5,-4.912 5,-5.293 0,-0.053 0.288,-0.532 0.64,-1.066 0.352,-0.533 0.921,-1.57 1.264,-2.303 0.343,-0.734 0.73,-1.533 0.86,-1.776 0.13,-0.243 0.239,-0.581 0.242,-0.75 0.003,-0.169 0.115,-0.453 0.25,-0.631 0.134,-0.178 0.244,-0.525 0.244,-0.772 0,-0.246 0.113,-0.717 0.25,-1.046 0.138,-0.329 0.25,-0.888 0.25,-1.243 0,-0.356 0.112,-1.014 0.249,-1.464 0.136,-0.45 0.249,-1.339 0.25,-1.975 0.001,-0.637 0.116,-2.512 0.257,-4.167 0.206,-2.42 0.246,-5.295 0.208,-14.676 l -0.047,-11.6670002 h -2.75 -2.75 l -0.083,15.1670002 c -0.064,11.621 -0.132,15.276 -0.292,15.636 -0.115,0.258 -0.208,0.844 -0.208,1.302 0,0.459 -0.077,0.978 -0.172,1.154 -0.094,0.176 -0.237,0.639 -0.317,1.03 -0.784,3.814 -3.738,8.111 -7.431,10.811 -2.171,1.587 -5.109,2.964 -7.08,3.32 -0.413,0.074 -0.961,0.216 -1.22,0.316 -0.765,0.295 -7.907,0.239 -8.78,-0.069 -0.39,-0.138 -0.948,-0.25 -1.239,-0.25 -0.292,0 -0.677,-0.11 -0.854,-0.245 -0.178,-0.135 -0.5,-0.247 -0.715,-0.25 -0.215,-0.003 -0.59,-0.109 -0.833,-0.235 -0.244,-0.126 -0.818,-0.4 -1.276,-0.608 -2.93,-1.333 -6.01,-4.177 -8.036,-7.421 -0.39,-0.624 -1.381,-2.678 -1.381,-2.862 0,-0.102 -0.104,-0.398 -0.231,-0.657 -0.363,-0.741 -0.63,-1.574 -0.764,-2.389 -0.068,-0.413 -0.209,-0.961 -0.314,-1.219 -0.105,-0.258 -0.191,-0.784 -0.191,-1.168 0,-0.384 -0.092,-0.961 -0.206,-1.281 -0.155,-0.438 -0.227,-4.234 -0.291,-15.332 l -0.086,-14.7500002 -2.677,-0.046 c -1.472,-0.025 -2.728,0.007 -2.791,0.07 m 11.5,0 c -0.173,0.172 -0.125,25.3580002 0.05,26.2260002 0.083,0.412 0.198,1.537 0.256,2.5 0.058,0.962 0.181,1.975 0.272,2.25 0.092,0.275 0.227,0.875 0.302,1.333 0.144,0.89 0.41,1.726 0.778,2.443 0.125,0.243 0.227,0.547 0.227,0.674 0,0.128 0.337,0.746 0.75,1.374 0.412,0.628 0.75,1.191 0.75,1.251 0,0.914 4.846,4.489 6.121,4.514 0.163,0.003 0.483,0.113 0.712,0.244 0.229,0.131 0.717,0.243 1.083,0.248 0.367,0.005 1.267,0.118 2,0.25 1.375,0.249 4.494,0.014 5.834,-0.441 0.275,-0.093 0.738,-0.229 1.03,-0.301 2.225,-0.554 5.957,-3.469 7.048,-5.506 0.774,-1.444 1.226,-2.421 1.35,-2.916 0.069,-0.275 0.201,-0.725 0.294,-1 0.385,-1.147 0.565,-2.092 0.701,-3.667 0.079,-0.917 0.227,-2.379 0.33,-3.25 0.126,-1.072 0.169,-5.565 0.133,-13.917 l -0.053,-12.3330002 h -2.75 -2.75 l -0.091,15.0000002 c -0.094,15.47 -0.103,15.671 -0.763,16.942 -0.126,0.244 -0.229,0.537 -0.229,0.652 0,0.751 -1.86,2.954 -3.084,3.652 -2.511,1.434 -7.773,1.69 -9.916,0.483 -0.138,-0.077 -0.505,-0.255 -0.817,-0.395 -0.632,-0.284 -2.517,-2.149 -2.517,-2.491 0,-0.12 -0.112,-0.312 -0.25,-0.426 -0.137,-0.114 -0.25,-0.372 -0.25,-0.572 0,-0.201 -0.11,-0.51 -0.244,-0.688 -0.135,-0.178 -0.247,-0.525 -0.25,-0.771 -0.003,-0.246 -0.099,-0.659 -0.214,-0.917 -0.16,-0.359 -0.228,-3.981 -0.292,-15.469 l -0.083,-15.0000002 -2.677,-0.046 c -1.472,-0.025 -2.728,0.007 -2.791,0.07 m 47,0 c -0.064,0.063 -0.115,7.365 -0.115,16.2270002 0,13.793 -0.036,16.23 -0.249,16.931 -0.136,0.45 -0.249,1.177 -0.25,1.615 -10e-4,0.438 -0.114,1.066 -0.251,1.395 -0.138,0.329 -0.25,0.813 -0.25,1.075 0,0.262 -0.104,0.759 -0.23,1.105 -0.126,0.345 -0.362,1.078 -0.524,1.628 -0.279,0.947 -0.431,1.354 -0.98,2.625 -0.313,0.724 -0.914,1.981 -1.096,2.292 -0.08,0.137 -0.19,0.362 -0.243,0.5 -0.054,0.137 -0.246,0.475 -0.427,0.75 -0.182,0.275 -0.382,0.612 -0.445,0.75 -0.779,1.686 -6.92,8 -7.781,8 -0.046,0 -0.537,0.301 -1.091,0.669 -0.555,0.368 -1.179,0.743 -1.387,0.833 -0.209,0.09 -0.511,0.239 -0.671,0.331 -0.161,0.091 -0.423,0.242 -0.584,0.334 -0.16,0.093 -0.404,0.211 -0.541,0.262 -0.138,0.052 -0.363,0.165 -0.5,0.25 -0.138,0.086 -0.363,0.2 -0.5,0.253 -0.138,0.053 -0.55,0.212 -0.917,0.353 -0.367,0.141 -0.892,0.35 -1.167,0.465 -0.837,0.349 -1.643,0.617 -2.119,0.704 -0.826,0.15 -0.801,-0.369 -0.757,16.064 l 0.043,15.565 h 2.75 2.75 l 0.043,-13.878 0.042,-13.879 1.291,-0.592 c 1.811,-0.831 2.501,-1.18 3.457,-1.749 0.459,-0.273 1.021,-0.586 1.25,-0.695 2.607,-1.241 11,-9.551 11,-10.891 0,-0.079 1.242,-2.229 1.675,-2.899 0.088,-0.138 0.206,-0.363 0.261,-0.5 0.18,-0.448 1.089,-2.408 1.274,-2.75 0.1,-0.184 0.236,-0.596 0.303,-0.917 0.13,-0.624 0.391,-1.415 0.759,-2.297 0.126,-0.301 0.228,-0.81 0.228,-1.131 0,-0.32 0.113,-0.852 0.25,-1.181 0.138,-0.329 0.25,-0.86 0.25,-1.179 0,-0.32 0.109,-1.079 0.241,-1.688 0.52,-2.394 0.672,-7.146 0.674,-21.107 l 0.002,-13.6670002 -2.677,-0.046 c -1.472,-0.025 -2.728,0.007 -2.791,0.07 m -224.542,11.6080002 c -0.045,0.118 -0.062,1.375 -0.036,2.792 l 0.046,2.576 15.458,0.043 c 14.577,0.04 15.459,0.059 15.46,0.333 0,0.16 0.019,16.791 0.041,36.957 l 0.041,36.667 h 2.75 2.75 l 0.042,-36.957 0.042,-36.958 15.708,-0.042 15.708,-0.043 v -2.75 -2.75 l -33.963,-0.042 c -27.669,-0.034 -33.979,-0.002 -34.047,0.174 m 0.001,11.499 c -0.046,0.119 -0.063,1.376 -0.037,2.793 l 0.046,2.576 9.958,0.043 c 9.339,0.04 9.959,0.061 9.96,0.333 0,0.16 0.019,14.203 0.041,31.207 l 0.041,30.917 h 2.75 2.75 v -34 -34 l -12.713,-0.043 c -10.299,-0.034 -12.729,-0.001 -12.796,0.174 m 42.503,-0.007 c -0.044,0.115 -0.06,15.434 -0.037,34.043 l 0.043,33.833 h 2.75 2.75 l 0.042,-31.207 0.042,-31.207 9.958,-0.043 9.958,-0.043 v -2.75 -2.75 l -12.713,-0.043 c -10.083,-0.034 -12.73,0.001 -12.793,0.167 m -182.999998,28.5 c -0.044,0.115 -0.06,9.022 -0.037,19.793 l 0.043,19.583 h 2.75 2.75 l 0.042,-16.958 0.043,-16.959 h 9.416 c 8.855,0 9.416,0.018 9.418,0.292 0.001,0.16 0.019,7.792 0.041,16.958 l 0.04,16.667 h 2.75 2.75 v -19.75 -19.75 l -14.963,-0.043 c -11.883,-0.033 -14.98,10e-4 -15.043,0.167 m 237.499998,0.501 c -0.044,0.115 -0.06,8.908 -0.037,19.542 l 0.043,19.333 h 3 3 l 0.042,-16.716 0.043,-16.716 4.457,0.062 c 2.989,0.042 4.705,0.133 5.208,0.279 0.927,0.267 2.001,0.66 2.333,0.853 0.138,0.08 0.475,0.26 0.75,0.4 1.064,0.542 2.306,1.96 2.776,3.171 0.542,1.397 0.808,2.402 0.808,3.054 0,0.371 0.093,0.886 0.208,1.144 0.158,0.355 0.229,3.383 0.292,12.469 l 0.083,12 h 3 3 l 0.049,-8.833 c 0.031,-5.665 -0.019,-9.611 -0.141,-11 -0.105,-1.192 -0.247,-3.03 -0.315,-4.084 -0.069,-1.054 -0.212,-2.127 -0.317,-2.386 -0.106,-0.258 -0.195,-0.745 -0.199,-1.083 -0.003,-0.338 -0.113,-0.801 -0.244,-1.031 -0.131,-0.229 -0.241,-0.583 -0.244,-0.786 -0.015,-0.979 -1.814,-4.357 -2.915,-5.476 -1.043,-1.06 -4.227,-2.893 -5.053,-2.91 -0.158,-0.003 -0.475,-0.113 -0.704,-0.244 -0.229,-0.131 -0.656,-0.241 -0.948,-0.244 -0.292,-0.004 -0.742,-0.092 -1,-0.197 -0.258,-0.104 -1.294,-0.252 -2.302,-0.329 -1.009,-0.076 -2.584,-0.213 -3.5,-0.303 -2.554,-0.253 -11.074,-0.229 -11.173,0.031"
       stroke="none"
       fill="#fb6404"
       fill-rule="evenodd"
       style="display:inline"
       sodipodi:nodetypes="ccccccccccccccccscsccccccccccccccccccccccccccccccccccccccccccssccsssscscscscccccccsccccccccccccscscccscccccccscccccscccscccscscccccccsscscccscccscsccsscscscscccccccsccccccscscccsccsscccccccccccscscssccccccccccccccscccscscsscccccscscscccccccscccccccscccccccccccscccccscscsccccccccccccccccccccccccccccccccscsscccsscccccsscscccccccscsccsscscccscsccsccccccscccccccccccccccccsccccccccccsscccsccccccccscscccccscscccccccccscscscsccccccccccscccccsccccsscccccccccsscsccsssscscscsccccsccsccccccccccccscscccsccccccsscccccscccscccscscccccccsscscccscccscsccsscscscscccccccsccccccscscccsccssccccccsscccscscssccccccccccccccscccscscsscccccscscscscccccscccccccscccccccccccscccccscscscccccccccccccccccccccccccccccccccccccccccccccccccccccscscccccccccccccccccccsccccccccccccscsccccc" />
  </g>
</svg>
