<?xml version="1.0" encoding="UTF-8" standalone="no"?>
<svg
   id="splitsvg"
   version="1.1"
   width="75.553253"
   height="91.057823"
   sodipodi:docname="icon.svg"
   inkscape:export-filename="../Downloads/hytkylogo_7.svg"
   inkscape:export-xdpi="96"
   inkscape:export-ydpi="96"
   inkscape:version="1.3.2 (091e20e, 2023-11-25)"
   xmlns:inkscape="http://www.inkscape.org/namespaces/inkscape"
   xmlns:sodipodi="http://sodipodi.sourceforge.net/DTD/sodipodi-0.dtd"
   xmlns="http://www.w3.org/2000/svg"
   xmlns:svg="http://www.w3.org/2000/svg">
  <defs
     id="defs56" />
  <sodipodi:namedview
     id="namedview54"
     pagecolor="#000000"
     bordercolor="#eeeeee"
     borderopacity="1"
     inkscape:showpageshadow="0"
     inkscape:pageopacity="0"
     inkscape:pagecheckerboard="0"
     inkscape:deskcolor="#505050"
     showgrid="false"
     inkscape:zoom="7.3925296"
     inkscape:cx="37.537895"
     inkscape:cy="45.045474"
     inkscape:window-width="1440"
     inkscape:window-height="847"
     inkscape:window-x="0"
     inkscape:window-y="25"
     inkscape:window-maximized="1"
     inkscape:current-layer="splitsvg" />
  <path
     id="path1442"
     d="m 0.0102508,45.724823 0.043,45.333 h 2.75 2.75 v -45.5 -45.5000002 l -2.712,-0.046 c -2.078,-0.035 -2.731,0.004 -2.793,0.167 -0.044,0.117 -0.061,20.6120002 -0.038,45.5460002 z m 11.5000012,0 0.043,45.333 h 3 3 l 0.042,-22.708 0.043,-22.709 h 20.666 c 19.57,0 20.666,0.016 20.667,0.292 10e-4,0.16 0.02,10.379 0.042,22.708 l 0.04,22.417 h 2.75 2.75 v -45.5 -45.5000002 h -2.75 -2.75 l -0.038,19.8990002 c -0.021,10.945 -0.066,19.927 -0.098,19.96 -0.042,0.041 -36.427,0.095 -40.988,0.06 -0.275,-0.002 -0.294,-1.099 -0.334,-19.961 l -0.042,-19.9580002 -2.962,-0.046 c -2.279,-0.035 -2.981,0.004 -3.043,0.167 -0.044,0.117 -0.061,20.6120002 -0.038,45.5460002 z m 11.5,-28.5 0.043,16.833 h 15 15 v -17 -17.0000002 h -2.75 -2.75 l -0.037,14.1480002 c -0.021,7.782 -0.065,14.176 -0.099,14.211 -0.046,0.045 -16.149,0.1 -18.488,0.062 -0.274,-0.004 -0.293,-0.828 -0.333,-14.213 l -0.043,-14.2080002 -2.712,-0.046 c -2.078,-0.035 -2.731,0.004 -2.793,0.167 -0.044,0.117 -0.062,7.787 -0.038,17.0460002 z m 47,28.5 0.043,45.333 h 2.75 2.75 v -45.5 -45.5000002 l -2.712,-0.046 c -2.078,-0.035 -2.731,0.004 -2.793,0.167 -0.044,0.117 -0.061,20.6120002 -0.038,45.5460002 z m -47,25.75 0.043,19.583 h 2.75 2.75 l 0.042,-16.958 0.043,-16.959 h 9.416 c 8.855,0 9.416,0.018 9.418,0.292 0.001,0.16 0.019,7.792 0.041,16.958 l 0.04,16.667 h 2.75 2.75 v -19.75 -19.75 l -14.963,-0.043 c -11.883,-0.033 -14.98,10e-4 -15.043,0.167 -0.044,0.115 -0.06,9.022 -0.037,19.793 z"
     stroke="none"
     fill="#fb6404"
     fill-rule="evenodd"
     style="display:inline;image-rendering:auto"
     sodipodi:nodetypes="cccccccccccccccscsccccccccccccccccccccccccccccccccccccccccccccccccccccscscc"
     clip-path="none" />
  <g
     id="g1399">
    <path
       id="path1395"
       d="m 0.048252,0.1788228 c -0.044,0.117 -0.061,20.6120002 -0.038,45.5460002 l 0.043,45.333 h 2.75 2.75 v -45.5 -45.5000002 l -2.712,-0.046 c -2.078,-0.035 -2.731,0.004 -2.793,0.167 m 11.5,0 c -0.044,0.117 -0.061,20.6120002 -0.038,45.5460002 l 0.043,45.333 h 3 3 l 0.042,-22.708 0.043,-22.709 h 20.666 c 19.57,0 20.666,0.016 20.667,0.292 10e-4,0.16 0.02,10.379 0.042,22.708 l 0.04,22.417 h 2.75 2.75 v -45.5 -45.5000002 h -2.75 -2.75 l -0.038,19.8990002 c -0.021,10.945 -0.066,19.927 -0.098,19.96 -0.042,0.041 -36.427,0.095 -40.988,0.06 -0.275,-0.002 -0.294,-1.099 -0.334,-19.961 l -0.042,-19.9580002 -2.962,-0.046 c -2.279,-0.035 -2.981,0.004 -3.043,0.167 m 11.5,0 c -0.044,0.117 -0.062,7.787 -0.038,17.0460002 l 0.043,16.833 h 15 15 v -17 -17.0000002 h -2.75 -2.75 l -0.037,14.1480002 c -0.021,7.782 -0.065,14.176 -0.099,14.211 -0.046,0.045 -16.149,0.1 -18.488,0.062 -0.274,-0.004 -0.293,-0.828 -0.333,-14.213 l -0.043,-14.2080002 -2.712,-0.046 c -2.078,-0.035 -2.731,0.004 -2.793,0.167 m 47,0 c -0.044,0.117 -0.061,20.6120002 -0.038,45.5460002 l 0.043,45.333 h 2.75 2.75 v -45.5 -45.5000002 l -2.712,-0.046 c -2.078,-0.035 -2.731,0.004 -2.793,0.167 m -47.001,51.5030002 c -0.044,0.115 -0.06,9.022 -0.037,19.793 l 0.043,19.583 h 2.75 2.75 l 0.042,-16.958 0.043,-16.959 h 9.416 c 8.855,0 9.416,0.018 9.418,0.292 0.001,0.16 0.019,7.792 0.041,16.958 l 0.04,16.667 h 2.75 2.75 v -19.75 -19.75 l -14.963,-0.043 c -11.883,-0.033 -14.98,10e-4 -15.043,0.167"
       stroke="none"
       fill="#fb6404"
       fill-rule="evenodd"
       style="display:inline"
       sodipodi:nodetypes="ccccccccccccccccscsccccccccccccccccccccccccccccccccccccccccccccccscsccccccc" />
  </g>
</svg>
