<?xml version="1.0" encoding="UTF-8" standalone="no"?>
<!-- Created with Inkscape (http://www.inkscape.org/) -->

<svg
   width="2.626188mm"
   height="2.705255mm"
   viewBox="0 0 2.626188 2.705255"
   version="1.1"
   id="svg5"
   xmlns:inkscape="http://www.inkscape.org/namespaces/inkscape"
   xmlns:sodipodi="http://sodipodi.sourceforge.net/DTD/sodipodi-0.dtd"
   xmlns="http://www.w3.org/2000/svg"
   xmlns:svg="http://www.w3.org/2000/svg">
  <sodipodi:namedview
     id="namedview7"
     pagecolor="#ffffff"
     bordercolor="#000000"
     borderopacity="0.25"
     inkscape:showpageshadow="2"
     inkscape:pageopacity="0.0"
     inkscape:pagecheckerboard="0"
     inkscape:deskcolor="#d1d1d1"
     inkscape:document-units="mm"
     showgrid="false" />
  <defs
     id="defs2" />
  <g
     inkscape:label="Layer 1"
     inkscape:groupmode="layer"
     id="layer1"
     transform="translate(-69.488954,-99.581535)">
    <path
       id="text113"
       style="font-size:3.175px;fill:#000000;stroke-width:0.264583"
       d="m 70.829957,99.581545 c -0.187067,0 -0.362768,0.03462 -0.527099,0.10387 -0.164331,0.06925 -0.306442,0.164331 -0.426331,0.285254 -0.119889,0.120921 -0.214457,0.264071 -0.283703,0.429431 -0.06925,0.16433 -0.10387,0.3421 -0.10387,0.5333 0,0.20154 0.03307,0.38551 0.09922,0.5519 0.06615,0.1664 0.158647,0.30903 0.277502,0.42789 0.117822,0.11782 0.258899,0.20929 0.42323,0.2744 0.164331,0.0661 0.342615,0.0992 0.534851,0.0992 0.09198,0 0.181385,-0.004 0.268201,-0.0124 0.08682,-0.007 0.180351,-0.0217 0.280603,-0.0434 v -0.22015 c -0.08682,0.0248 -0.177767,0.0429 -0.272852,0.0543 -0.09405,0.0114 -0.185519,0.0171 -0.274401,0.0171 -0.162264,0 -0.312127,-0.0269 -0.449585,-0.0806 -0.13746,-0.0527 -0.257349,-0.13126 -0.359668,-0.23564 -0.09819,-0.10025 -0.174151,-0.22066 -0.227893,-0.36122 -0.05374,-0.14159 -0.08062,-0.29766 -0.08062,-0.46819 0,-0.15916 0.02791,-0.30902 0.08372,-0.44958 0.05684,-0.1416 0.134876,-0.26304 0.234094,-0.36432 0.09819,-0.10129 0.215491,-0.181905 0.351917,-0.241848 0.137459,-0.05994 0.288871,-0.08992 0.454236,-0.08992 0.170532,0 0.322978,0.02688 0.457336,0.08061 0.134359,0.05271 0.247014,0.128668 0.337964,0.227888 0.09095,0.0992 0.15968,0.21808 0.206189,0.35657 0.04754,0.13849 0.07131,0.29249 0.07131,0.46199 0,0.092 -0.01137,0.19637 -0.03411,0.31316 -0.0217,0.11575 -0.05426,0.21239 -0.09767,0.2899 h -0.376722 v -1.30535 H 71.14931 v 0.0744 c -0.06718,-0.0341 -0.129708,-0.0594 -0.187586,-0.076 -0.05788,-0.0176 -0.124541,-0.0264 -0.199987,-0.0264 -0.176734,0 -0.328663,0.0698 -0.455787,0.20929 -0.127122,0.13953 -0.190686,0.32659 -0.190686,0.56121 0,0.23563 0.05168,0.41909 0.15503,0.55035 0.104386,0.13126 0.243397,0.19689 0.417028,0.19689 0.09095,0 0.171566,-0.0165 0.241846,-0.0496 0.07028,-0.0331 0.143661,-0.0806 0.220142,-0.14263 l 0.04186,0.17983 h 0.682129 c 0.07751,-0.11058 0.136942,-0.23306 0.178283,-0.36742 0.04238,-0.13435 0.06356,-0.27336 0.06356,-0.41702 0,-0.19948 -0.02945,-0.38034 -0.08837,-0.54261 -0.05788,-0.16329 -0.141594,-0.30282 -0.251148,-0.418574 -0.109554,-0.115755 -0.243913,-0.205672 -0.403076,-0.269751 -0.159163,-0.06408 -0.340031,-0.09612 -0.542603,-0.09612 z m -0.0248,0.835605 c 0.05891,0 0.114205,0.007 0.165881,0.0202 0.05168,0.0124 0.110071,0.0336 0.175183,0.0636 v 0.80305 c -0.05684,0.0434 -0.119889,0.0811 -0.189136,0.11317 -0.06925,0.032 -0.138492,0.0481 -0.207739,0.0481 -0.127124,0 -0.220658,-0.0429 -0.280603,-0.12867 -0.05994,-0.0868 -0.08992,-0.21446 -0.08992,-0.38293 0,-0.17156 0.03772,-0.30385 0.113172,-0.39687 0.07545,-0.093 0.179834,-0.13953 0.313159,-0.13953 z" />
    <path
       style="fill:#ffffff;stroke-width:0.0131379"
       d="M 4.5654313,10.199915 C 3.2700597,10.095017 2.0800365,9.5321838 1.2772979,8.6447591 0.42146857,7.6986428 -0.02659232,6.3995169 0.01082876,4.9727072 0.02919813,4.2723108 0.15615863,3.6719383 0.41385712,3.0668611 0.89321192,1.9413341 1.6982461,1.0796356 2.7734715,0.54115925 3.3016438,0.27664887 3.8640628,0.1105849 4.4800347,0.03726682 4.7516105,0.00494163 5.4306931,0.00485343 5.7183735,0.03710599 6.1234017,0.08251471 6.5237454,0.16516346 6.8317245,0.26695123 7.324326,0.42975704 7.8516379,0.71158471 8.228178,1.0133012 c 0.9671722,0.7749822 1.5502259,1.9851912 1.6709359,3.4682602 0.018276,0.2245465 0.018282,0.7840296 9.3e-6,0.9841912 -0.07742,0.8480852 -0.3463571,1.6544838 -0.7779028,2.3325105 L 9.0130884,7.9681556 7.7253375,7.9681031 6.4375866,7.9680505 6.3599029,7.63309 C 6.3171769,7.4488534 6.2796621,7.2981211 6.2765368,7.2981211 c -0.00313,0 -0.078478,0.0544 -0.1674513,0.1208895 C 5.7010484,7.7239354 5.341756,7.9052746 5.0117384,7.9728552 4.6560767,8.045687 4.2494349,8.0313879 3.9116647,7.9341724 3.7765743,7.8952912 3.5387401,7.7841534 3.4205956,7.7047001 2.9262453,7.3722452 2.5957396,6.8256775 2.4563309,6.1100654 2.3998586,5.8201819 2.3800353,5.5950101 2.3793344,5.2354658 2.378462,4.7881312 2.4098953,4.5223422 2.5044098,4.1778623 2.708938,3.432413 3.2147457,2.8142702 3.8756899,2.502034 4.3923191,2.2579734 5.0589111,2.2310524 5.6624486,2.4298739 c 0.180375,0.05942 0.3751702,0.1387109 0.5219049,0.2124393 0.048594,0.024417 0.091457,0.044394 0.09525,0.044394 0.00379,0 0.0069,-0.065033 0.0069,-0.1445172 V 2.3976725 H 6.746328 7.2061556 V 4.8676037 7.3375349 H 7.9220409 8.6379265 L 8.6952574,7.222578 C 8.8816393,6.8488552 9.0194821,6.3100727 9.0995068,5.6424976 9.1374447,5.3260166 9.1408449,4.7467822 9.1066006,4.434052 8.9560068,3.0587746 8.3980582,2.0379702 7.4623452,1.425776 7.2981836,1.3183727 6.9320766,1.1344988 6.746328,1.0661629 5.9849332,0.78605035 5.0590104,0.71072417 4.2244427,0.86100112 3.5389786,0.98442965 2.8673045,1.3036419 2.3118126,1.7699758 2.1304318,1.9222447 1.8384147,2.2298025 1.7007645,2.4135433 1.2346121,3.0357814 0.95591627,3.7359925 0.85212037,4.5457244 0.82239178,4.7776429 0.81847934,5.432174 0.84532741,5.6821555 0.95971364,6.747202 1.3481327,7.6134445 2.0095192,8.2785069 c 0.3093064,0.3110255 0.605334,0.525558 0.9924982,0.7192678 0.4314637,0.2158742 0.894997,0.3541321 1.4188966,0.4232137 0.2192018,0.028904 0.8600052,0.039762 1.1520307,0.019521 0.5178024,-0.035891 0.9473529,-0.099349 1.3457979,-0.1988148 0.083989,-0.020967 0.1624092,-0.041844 0.1742667,-0.046394 0.019749,-0.00758 0.021268,0.026299 0.018085,0.4035029 l -0.00347,0.4117765 -0.1839311,0.03607 c -0.3979993,0.07804 -0.7942055,0.126101 -1.2743793,0.154592 -0.2613031,0.0155 -0.8855024,0.01474 -1.0838794,-0.0013 z M 5.1131308,7.0889774 c 0.07362,-0.015129 0.1859493,-0.045843 0.2496207,-0.068253 0.2255484,-0.079386 0.5736546,-0.2656905 0.81076,-0.4339134 L 6.2727336,6.5164142 6.2729938,4.9924141 6.2732539,3.468414 6.1057999,3.3992969 C 5.8060081,3.2755572 5.5509095,3.202871 5.3077244,3.1718986 5.1362199,3.1500556 4.792898,3.1538974 4.6508854,3.1792488 4.1839118,3.2626105 3.829202,3.527501 3.6092698,3.9571079 3.4496437,4.2689151 3.3763285,4.598011 3.361066,5.0712417 3.3355456,5.8625321 3.5079215,6.4871681 3.83802,6.799573 c 0.1844507,0.1745641 0.4052798,0.2743097 0.6945665,0.3137267 0.1414086,0.019268 0.4265597,0.00732 0.5805443,-0.024322 z"
       id="path483"
       transform="matrix(0.26458333,0,0,0.26458333,69.488954,99.581545)" />
  </g>
</svg>
